<svg xmlns="http://www.w3.org/2000/svg" xmlns:xlink="http://www.w3.org/1999/xlink" width="500" zoomAndPan="magnify" viewBox="0 0 375 374.999991" height="500" preserveAspectRatio="xMidYMid meet" version="1.0"><defs><clipPath id="cb27aefa57"><path d="M 112.5 238.363281 L 260 238.363281 L 260 374 L 112.5 374 Z M 112.5 238.363281 " clip-rule="nonzero"/></clipPath><clipPath id="1092acb6fb"><path d="M 125 293 L 262.5 293 L 262.5 374.863281 L 125 374.863281 Z M 125 293 " clip-rule="nonzero"/></clipPath></defs><path fill="#6d9826" d="M 239.339844 272.5 C 239.222656 270.503906 238.757812 268.527344 237.941406 266.695312 C 238.007812 273.78125 235.542969 280.585938 232.8125 287.171875 C 232.464844 288.054688 232.082031 288.917969 231.714844 289.800781 C 232 289.136719 232.863281 288.453125 233.296875 287.871094 C 233.8125 287.171875 234.28125 286.457031 234.710938 285.707031 C 235.476562 284.359375 236.078125 283.128906 237.058594 281.949219 C 237.425781 281.484375 237.757812 280.984375 238.027344 280.433594 C 239.222656 278.058594 239.507812 274.996094 239.339844 272.5 Z M 187.046875 303.804688 C 184.566406 306.46875 182.917969 309.910156 182.417969 313.535156 C 182.332031 314.152344 182.265625 314.765625 182.25 315.398438 C 182.199219 316.878906 182.332031 318.375 182.648438 319.824219 C 182.816406 320.621094 183.582031 324.730469 184.582031 323.148438 C 184.714844 322.933594 184.796875 322.667969 184.847656 322.386719 C 185.128906 320.90625 184.449219 318.660156 184.414062 317.410156 C 184.347656 315.214844 184.515625 313.039062 184.914062 310.875 C 185.347656 308.445312 186.0625 306.066406 187.046875 303.804688 Z M 131.519531 294.058594 L 131.519531 294.042969 C 131.335938 293.640625 130.9375 293.226562 130.769531 292.992188 C 129.023438 290.316406 127.441406 287.371094 127.273438 284.128906 C 126.523438 286.207031 126.59375 288.570312 127.441406 290.613281 C 127.675781 291.199219 127.972656 291.730469 128.324219 292.246094 C 128.757812 292.878906 129.273438 293.460938 129.855469 293.976562 C 130.023438 294.109375 130.320312 294.40625 130.636719 294.625 C 130.9375 294.824219 131.238281 294.941406 131.453125 294.757812 C 131.667969 294.589844 131.652344 294.324219 131.519531 294.058594 Z M 146.570312 304.804688 C 144.671875 302.558594 142.074219 301.011719 139.246094 300.195312 C 139.246094 300.195312 139.246094 300.179688 139.230469 300.179688 C 137.996094 299.8125 136.714844 299.597656 135.433594 299.515625 C 131.21875 299.246094 127.007812 300.414062 123.246094 302.324219 C 130.886719 300.363281 139.261719 301.410156 146.222656 305.152344 C 146.855469 305.484375 147.46875 305.851562 148.085938 306.234375 Z M 176.890625 305.121094 C 176.488281 304.171875 176.007812 303.257812 175.441406 302.390625 C 174.640625 301.175781 174.042969 299.863281 173.261719 298.648438 C 172.742188 297.816406 171.996094 297.101562 171.128906 296.519531 C 169.03125 295.023438 166.183594 294.207031 163.917969 293.910156 C 161.789062 293.640625 159.609375 293.777344 157.542969 294.375 C 160.671875 294.359375 163.71875 295.589844 166.332031 297.320312 C 168.964844 299.066406 171.195312 301.292969 173.425781 303.523438 C 174.492188 304.585938 175.589844 305.683594 176.671875 306.765625 C 177.023438 307.117188 177.390625 307.480469 177.753906 307.847656 C 177.324219 307.414062 177.140625 305.734375 176.890625 305.121094 Z M 195.667969 264.351562 C 195.4375 262.023438 195.402344 259.542969 194.769531 257.25 C 194.585938 256.515625 194.320312 255.800781 193.988281 255.117188 C 193.339844 253.789062 192.375 252.605469 191.207031 251.675781 C 190.625 251.226562 189.992188 250.828125 189.328125 250.511719 C 188.910156 250.328125 187.929688 250.195312 187.460938 249.960938 C 191.808594 253.140625 194.554688 258.414062 194.652344 263.800781 C 194.652344 264.035156 194.652344 264.285156 194.738281 264.5 C 194.738281 264.5 194.753906 264.5 194.738281 264.515625 C 194.769531 264.582031 194.804688 264.648438 194.855469 264.699219 C 195.035156 264.949219 195.503906 265 195.636719 264.714844 C 195.6875 264.601562 195.667969 264.46875 195.667969 264.351562 Z M 198.332031 270.074219 C 197.234375 272.269531 196.734375 274.496094 196.253906 276.777344 C 195.984375 278.058594 195.71875 279.371094 195.351562 280.683594 C 195.019531 281.867188 194.6875 282.914062 194.738281 284.160156 C 194.789062 285.109375 194.921875 286.058594 195.121094 286.972656 C 195.269531 287.753906 195.953125 289 195.886719 289.785156 C 195.984375 288.535156 196.121094 287.289062 196.300781 286.039062 C 197.617188 276.957031 201.214844 268.210938 206.691406 260.839844 C 203.078125 263.019531 200.214844 266.3125 198.332031 270.074219 Z M 228.269531 313.601562 C 227.085938 314.417969 225.988281 315.347656 224.957031 316.378906 L 223.257812 317.578125 C 222.992188 318.261719 222.273438 318.644531 221.757812 319.160156 C 221.242188 319.691406 220.960938 320.640625 221.542969 321.089844 C 221.574219 321.105469 221.59375 321.121094 221.625 321.136719 C 222.191406 321.46875 222.957031 321.019531 223.472656 320.574219 C 229.367188 315.632812 235.660156 310.90625 242.988281 308.511719 C 237.726562 308.730469 232.53125 310.527344 228.269531 313.601562 Z M 226.753906 300.761719 C 225.738281 301.378906 224.773438 302.09375 223.90625 302.90625 C 222.660156 304.023438 221.558594 305.320312 220.644531 306.734375 C 219.929688 307.8125 216.113281 312.054688 217.28125 313.269531 C 217.429688 313.417969 217.628906 313.46875 217.847656 313.417969 C 217.980469 313.402344 218.097656 313.371094 218.195312 313.304688 C 218.480469 313.136719 218.664062 312.855469 218.84375 312.589844 C 223.359375 305.886719 230.035156 300.679688 237.644531 297.917969 C 233.828125 297.75 229.984375 298.765625 226.753906 300.761719 Z M 226.753906 300.761719 " fill-opacity="1" fill-rule="nonzero"/><g clip-path="url(#cb27aefa57)"><path fill="#93c808" d="M 259.070312 260.597656 C 258.328125 260.753906 257.589844 260.90625 256.851562 261.066406 C 256.496094 261.144531 256.144531 261.21875 255.792969 261.300781 C 255.933594 261.152344 256.070312 261 256.210938 260.851562 C 256.628906 260.792969 257.042969 260.695312 257.449219 260.589844 C 257.976562 260.453125 258.488281 260.292969 259.003906 260.117188 C 259.160156 260.0625 259.148438 259.78125 258.960938 259.804688 C 258.425781 259.871094 257.898438 259.945312 257.367188 260.050781 C 257.238281 260.078125 257.109375 260.105469 256.980469 260.132812 C 257.113281 260.03125 257.25 259.929688 257.386719 259.832031 C 257.75 259.578125 258.109375 259.289062 258.53125 259.136719 C 258.71875 259.070312 258.644531 258.785156 258.449219 258.835938 C 258.003906 258.953125 257.554688 259.179688 257.171875 259.433594 C 257.128906 259.460938 257.089844 259.492188 257.042969 259.523438 C 256.988281 259.507812 256.925781 259.515625 256.871094 259.566406 C 256.785156 259.652344 256.699219 259.742188 256.613281 259.824219 C 256.597656 259.835938 256.582031 259.847656 256.566406 259.859375 C 256.46875 259.933594 256.378906 260.015625 256.289062 260.097656 C 256.277344 260.105469 256.277344 260.113281 256.269531 260.121094 C 256.324219 259.929688 256.378906 259.738281 256.433594 259.546875 C 256.59375 258.984375 256.765625 258.429688 256.9375 257.871094 C 257 257.671875 256.703125 257.601562 256.628906 257.789062 C 256.414062 258.332031 256.195312 258.875 255.96875 259.417969 C 255.855469 259.683594 255.742188 259.949219 255.632812 260.214844 C 255.523438 260.476562 255.378906 260.753906 255.402344 261.039062 C 255.226562 261.214844 255.054688 261.386719 254.882812 261.5625 C 254.953125 261.285156 255.015625 261.007812 255.082031 260.730469 C 255.25 260.003906 255.417969 259.28125 255.582031 258.550781 C 255.617188 258.386719 255.386719 258.324219 255.332031 258.484375 C 255.089844 259.1875 254.851562 259.894531 254.613281 260.601562 C 254.5 260.945312 254.378906 261.28125 254.277344 261.625 C 254.222656 261.8125 254.167969 261.996094 254.113281 262.183594 C 254.09375 262.253906 254.074219 262.320312 254.0625 262.386719 C 253.765625 262.6875 253.460938 262.980469 253.167969 263.28125 C 253.175781 263.253906 253.183594 263.214844 253.1875 263.191406 C 253.300781 262.773438 253.414062 262.359375 253.53125 261.945312 C 253.757812 261.113281 253.953125 260.269531 254.121094 259.425781 C 254.152344 259.28125 253.953125 259.226562 253.902344 259.363281 C 253.597656 260.171875 253.320312 260.992188 253.074219 261.816406 C 252.949219 262.230469 252.824219 262.644531 252.703125 263.058594 C 252.632812 263.285156 252.480469 263.660156 252.503906 263.949219 C 252.160156 264.300781 251.828125 264.660156 251.488281 265.015625 C 251.523438 264.867188 251.554688 264.71875 251.582031 264.601562 C 251.6875 264.1875 251.800781 263.773438 251.898438 263.351562 C 252.097656 262.5 252.28125 261.644531 252.472656 260.789062 C 252.515625 260.601562 252.238281 260.523438 252.183594 260.710938 C 251.929688 261.546875 251.671875 262.382812 251.425781 263.222656 C 251.304688 263.636719 251.199219 264.050781 251.089844 264.464844 C 251.003906 264.777344 250.78125 265.285156 250.941406 265.597656 C 250.660156 265.890625 250.386719 266.183594 250.109375 266.480469 C 250.136719 266.335938 250.164062 266.191406 250.191406 266.066406 C 250.304688 265.578125 250.398438 265.082031 250.496094 264.589844 C 250.6875 263.625 250.945312 262.640625 251.019531 261.65625 C 251.027344 261.574219 250.914062 261.570312 250.886719 261.636719 C 250.503906 262.578125 250.289062 263.601562 250.023438 264.578125 C 249.890625 265.0625 249.757812 265.542969 249.640625 266.03125 C 249.554688 266.382812 249.410156 266.785156 249.472656 267.152344 C 249.277344 267.359375 249.082031 267.566406 248.886719 267.773438 C 248.785156 267.800781 248.683594 267.824219 248.582031 267.851562 C 248.582031 267.835938 248.585938 267.820312 248.589844 267.808594 C 248.6875 267.320312 248.789062 266.832031 248.886719 266.34375 C 249.09375 265.328125 249.269531 264.308594 249.414062 263.28125 C 249.433594 263.152344 249.253906 263.09375 249.214844 263.226562 C 248.933594 264.21875 248.679688 265.21875 248.457031 266.226562 C 248.347656 266.710938 248.238281 267.195312 248.132812 267.679688 C 248.097656 267.828125 248.070312 267.972656 248.039062 268.121094 C 248.035156 268.125 248.035156 268.132812 248.035156 268.136719 C 248.011719 268.246094 247.984375 268.355469 247.964844 268.464844 C 247.945312 268.582031 247.921875 268.699219 247.914062 268.8125 C 247.726562 269.015625 247.550781 269.226562 247.363281 269.429688 C 247.382812 269.253906 247.402344 269.074219 247.433594 268.898438 C 247.519531 268.417969 247.609375 267.933594 247.6875 267.449219 C 247.839844 266.460938 247.992188 265.476562 248.121094 264.488281 C 248.144531 264.316406 247.871094 264.289062 247.828125 264.445312 C 247.558594 265.484375 247.300781 266.523438 247.066406 267.570312 C 246.957031 268.078125 246.84375 268.589844 246.742188 269.101562 C 246.675781 269.433594 246.625 269.800781 246.757812 270.109375 C 227.421875 291.539062 212.371094 316.363281 202.324219 343.589844 C 200.652344 348.113281 199.121094 352.695312 197.738281 357.316406 C 197.195312 359.144531 196.625 360.984375 196.109375 362.839844 C 195.882812 361.804688 195.632812 360.773438 195.359375 359.746094 C 195.371094 358.21875 195.363281 356.6875 195.386719 355.179688 C 195.453125 351.039062 195.519531 346.898438 195.585938 342.753906 C 195.722656 334.46875 195.859375 326.183594 195.988281 317.894531 C 196.25 301.320312 196.46875 284.75 196.128906 268.175781 C 196.011719 262.558594 195.847656 256.941406 195.652344 251.328125 C 195.679688 251.289062 195.710938 251.25 195.730469 251.21875 C 196.203125 250.539062 196.65625 249.847656 197.078125 249.132812 C 197.550781 248.324219 197.984375 247.488281 198.351562 246.628906 C 198.425781 246.457031 198.207031 246.320312 198.101562 246.480469 C 197.269531 247.742188 196.460938 249.019531 195.605469 250.265625 C 195.59375 249.960938 195.582031 249.660156 195.570312 249.355469 C 195.757812 249.128906 195.902344 248.839844 196.046875 248.59375 C 196.234375 248.269531 196.425781 247.949219 196.601562 247.617188 C 196.945312 246.953125 197.292969 246.289062 197.636719 245.625 C 197.734375 245.441406 197.476562 245.292969 197.363281 245.464844 C 196.941406 246.082031 196.519531 246.703125 196.097656 247.324219 C 195.894531 247.621094 195.710938 247.929688 195.523438 248.234375 C 195.507812 247.847656 195.492188 247.457031 195.472656 247.066406 C 195.625 246.910156 195.753906 246.722656 195.878906 246.539062 C 196.0625 246.265625 196.226562 245.976562 196.398438 245.695312 C 196.75 245.125 197.082031 244.546875 197.417969 243.964844 C 197.503906 243.808594 197.28125 243.621094 197.160156 243.765625 C 196.742188 244.289062 196.324219 244.808594 195.917969 245.34375 C 195.757812 245.558594 195.589844 245.773438 195.429688 245.988281 C 195.425781 245.933594 195.425781 245.878906 195.421875 245.820312 C 195.441406 245.738281 195.4375 245.644531 195.410156 245.546875 C 195.40625 245.40625 195.398438 245.261719 195.394531 245.117188 C 195.523438 244.976562 195.644531 244.828125 195.765625 244.679688 C 195.964844 244.433594 196.152344 244.175781 196.339844 243.921875 C 196.703125 243.429688 197.027344 242.914062 197.355469 242.394531 C 197.445312 242.25 197.238281 242.097656 197.121094 242.214844 C 196.691406 242.640625 196.265625 243.066406 195.867188 243.519531 C 195.695312 243.722656 195.519531 243.921875 195.351562 244.125 C 195.34375 243.957031 195.339844 243.785156 195.332031 243.617188 C 195.488281 243.457031 195.613281 243.210938 195.683594 243.078125 C 195.847656 242.769531 196.007812 242.457031 196.171875 242.144531 C 196.519531 241.476562 196.808594 240.777344 197.121094 240.09375 C 197.210938 239.894531 196.945312 239.730469 196.824219 239.921875 C 196.414062 240.550781 195.984375 241.167969 195.609375 241.816406 C 195.5 242.007812 195.390625 242.199219 195.28125 242.390625 C 195.277344 242.320312 195.277344 242.25 195.273438 242.179688 C 195.308594 242.019531 195.308594 241.828125 195.316406 241.726562 C 195.335938 241.527344 195.34375 241.324219 195.355469 241.125 C 195.402344 241.054688 195.453125 240.984375 195.5 240.914062 C 195.621094 240.734375 195.75 240.554688 195.859375 240.371094 C 195.972656 240.183594 196.09375 240 196.195312 239.808594 C 196.300781 239.609375 196.402344 239.40625 196.503906 239.207031 C 196.574219 239.066406 196.394531 238.90625 196.28125 239.03125 C 196.132812 239.199219 195.980469 239.363281 195.835938 239.53125 C 195.695312 239.695312 195.566406 239.875 195.429688 240.050781 C 195.464844 239.574219 195.492188 239.097656 195.542969 238.628906 C 195.558594 238.484375 195.351562 238.476562 195.308594 238.59375 C 195.136719 239.039062 195.015625 239.492188 194.921875 239.949219 C 194.886719 239.976562 194.859375 240.015625 194.859375 240.074219 C 194.859375 240.140625 194.859375 240.210938 194.859375 240.28125 C 194.84375 240.386719 194.8125 240.484375 194.800781 240.589844 C 194.78125 240.761719 194.785156 240.929688 194.773438 241.097656 C 194.765625 241.128906 194.757812 241.15625 194.757812 241.1875 C 194.519531 240.597656 194.257812 240.015625 194.011719 239.425781 C 193.949219 239.28125 193.710938 239.386719 193.753906 239.535156 C 193.945312 240.15625 194.125 240.785156 194.335938 241.402344 C 194.496094 241.871094 194.648438 242.359375 194.847656 242.820312 C 194.847656 242.949219 194.84375 243.074219 194.84375 243.199219 C 194.789062 243.34375 194.789062 243.480469 194.84375 243.589844 C 194.84375 243.8125 194.839844 244.03125 194.839844 244.25 C 194.808594 244.183594 194.777344 244.117188 194.746094 244.050781 C 194.441406 243.402344 194.117188 242.765625 193.804688 242.121094 C 193.742188 242 193.527344 242.085938 193.578125 242.21875 C 193.835938 242.886719 194.078125 243.558594 194.34375 244.222656 C 194.460938 244.523438 194.578125 244.824219 194.703125 245.125 C 194.703125 245.195312 194.71875 245.265625 194.777344 245.324219 C 194.78125 245.324219 194.78125 245.324219 194.785156 245.328125 C 194.800781 245.367188 194.816406 245.402344 194.832031 245.445312 C 194.832031 245.804688 194.828125 246.160156 194.828125 246.519531 C 194.726562 246.34375 194.632812 246.164062 194.53125 245.988281 C 194.152344 245.332031 193.78125 244.671875 193.371094 244.03125 C 193.265625 243.859375 193.03125 244.007812 193.109375 244.183594 C 193.410156 244.886719 193.75 245.566406 194.085938 246.25 C 194.242188 246.570312 194.390625 246.894531 194.566406 247.207031 C 194.617188 247.300781 194.707031 247.5 194.824219 247.648438 C 194.820312 248.085938 194.816406 248.519531 194.816406 248.953125 C 194.78125 248.902344 194.742188 248.847656 194.710938 248.796875 C 194.523438 248.523438 194.339844 248.246094 194.15625 247.972656 C 193.78125 247.410156 193.402344 246.851562 193.027344 246.289062 C 192.921875 246.132812 192.671875 246.273438 192.769531 246.441406 C 193.105469 247.023438 193.441406 247.609375 193.777344 248.191406 C 193.945312 248.476562 194.109375 248.765625 194.273438 249.050781 C 194.433594 249.324219 194.585938 249.636719 194.8125 249.863281 C 194.808594 250.167969 194.808594 250.472656 194.808594 250.78125 C 194.636719 250.566406 194.464844 250.355469 194.300781 250.136719 C 193.875 249.570312 193.46875 248.984375 193.082031 248.390625 C 192.988281 248.246094 192.777344 248.371094 192.851562 248.527344 C 193.164062 249.175781 193.511719 249.800781 193.898438 250.410156 C 194.082031 250.703125 194.269531 250.996094 194.480469 251.273438 C 194.582031 251.410156 194.6875 251.5625 194.800781 251.703125 C 194.710938 280.953125 194.464844 310.195312 193.992188 339.441406 C 193.917969 344.136719 193.84375 348.828125 193.765625 353.523438 C 193.765625 353.585938 193.761719 353.648438 193.761719 353.710938 C 193.160156 351.410156 192.558594 349.109375 191.953125 346.8125 C 190.210938 340.167969 188.449219 333.527344 186.378906 326.976562 C 182.472656 314.621094 177.296875 302.757812 169.921875 292.054688 C 167.910156 289.140625 165.746094 286.328125 163.476562 283.605469 C 163.488281 283.59375 163.5 283.59375 163.507812 283.578125 C 163.65625 283.304688 163.746094 283.007812 163.828125 282.710938 C 163.910156 282.417969 163.992188 282.121094 164.039062 281.820312 C 164.136719 281.214844 164.183594 280.605469 164.191406 279.996094 C 164.191406 279.75 163.847656 279.765625 163.820312 279.996094 C 163.75 280.574219 163.636719 281.140625 163.484375 281.699219 C 163.410156 281.972656 163.34375 282.25 163.257812 282.519531 C 163.195312 282.722656 163.128906 282.925781 163.066406 283.128906 C 162.855469 282.878906 162.640625 282.636719 162.425781 282.386719 C 162.644531 282.136719 162.734375 281.769531 162.828125 281.457031 C 162.921875 281.152344 162.988281 280.835938 163.042969 280.523438 C 163.160156 279.878906 163.191406 279.230469 163.164062 278.578125 C 163.15625 278.34375 162.839844 278.359375 162.8125 278.578125 C 162.738281 279.1875 162.597656 279.796875 162.4375 280.390625 C 162.355469 280.6875 162.253906 280.976562 162.15625 281.269531 C 162.09375 281.457031 162.015625 281.648438 161.953125 281.839844 C 161.738281 281.589844 161.523438 281.339844 161.308594 281.089844 C 161.328125 281.0625 161.359375 281.050781 161.371094 281.011719 C 161.453125 280.730469 161.484375 280.433594 161.535156 280.144531 C 161.582031 279.863281 161.621094 279.582031 161.660156 279.296875 C 161.742188 278.726562 161.796875 278.15625 161.859375 277.582031 C 161.878906 277.394531 161.582031 277.363281 161.535156 277.539062 C 161.382812 278.09375 161.222656 278.648438 161.089844 279.210938 C 160.988281 279.636719 160.882812 280.074219 160.808594 280.511719 C 160.613281 280.292969 160.429688 280.066406 160.234375 279.847656 C 160.304688 279.648438 160.339844 279.425781 160.363281 279.226562 C 160.394531 278.964844 160.425781 278.703125 160.457031 278.441406 C 160.519531 277.925781 160.527344 277.394531 160.570312 276.875 C 160.589844 276.679688 160.269531 276.636719 160.226562 276.828125 C 160.117188 277.339844 159.976562 277.851562 159.886719 278.367188 C 159.839844 278.625 159.792969 278.882812 159.75 279.144531 C 159.742188 279.191406 159.734375 279.242188 159.726562 279.289062 C 159.488281 279.023438 159.238281 278.765625 159 278.503906 C 159.113281 278.171875 159.179688 277.824219 159.25 277.488281 C 159.339844 277.066406 159.398438 276.640625 159.464844 276.214844 C 159.503906 275.96875 159.15625 275.859375 159.082031 276.109375 C 158.957031 276.519531 158.828125 276.925781 158.726562 277.34375 C 158.671875 277.566406 158.609375 277.796875 158.558594 278.027344 C 158.425781 277.882812 158.292969 277.734375 158.15625 277.589844 C 158.207031 277.445312 158.222656 277.277344 158.25 277.125 C 158.277344 276.960938 158.308594 276.796875 158.328125 276.632812 C 158.375 276.304688 158.417969 275.972656 158.464844 275.644531 C 158.480469 275.539062 158.4375 275.429688 158.328125 275.398438 C 158.226562 275.371094 158.109375 275.433594 158.082031 275.539062 C 158 275.867188 157.921875 276.191406 157.839844 276.519531 C 157.800781 276.679688 157.769531 276.839844 157.738281 277.003906 C 157.730469 277.039062 157.726562 277.078125 157.71875 277.117188 C 157.5625 276.949219 157.40625 276.777344 157.25 276.609375 C 157.273438 276.542969 157.289062 276.472656 157.304688 276.414062 C 157.34375 276.238281 157.375 276.058594 157.410156 275.878906 C 157.472656 275.53125 157.539062 275.183594 157.601562 274.835938 C 157.644531 274.613281 157.320312 274.515625 157.257812 274.742188 C 157.164062 275.082031 157.070312 275.417969 156.976562 275.757812 C 156.9375 275.902344 156.898438 276.042969 156.863281 276.1875 C 156.8125 276.136719 156.765625 276.082031 156.71875 276.03125 C 156.644531 275.875 156.574219 275.714844 156.492188 275.558594 C 156.289062 275.167969 156.082031 274.78125 155.875 274.390625 C 155.8125 274.265625 155.589844 274.351562 155.644531 274.488281 C 155.808594 274.894531 155.96875 275.304688 156.132812 275.710938 C 156.171875 275.808594 156.214844 275.898438 156.257812 275.992188 C 156.25 276.042969 156.261719 276.09375 156.304688 276.140625 C 156.320312 276.15625 156.332031 276.171875 156.34375 276.183594 C 156.363281 276.222656 156.378906 276.261719 156.394531 276.300781 C 156.464844 276.457031 156.546875 276.609375 156.652344 276.746094 C 156.609375 276.726562 156.570312 276.707031 156.53125 276.683594 C 155.9375 276.382812 155.320312 276.132812 154.710938 275.867188 C 154.574219 275.808594 154.460938 275.988281 154.59375 276.070312 C 155.148438 276.425781 155.699219 276.800781 156.277344 277.121094 C 156.566406 277.28125 156.855469 277.441406 157.144531 277.605469 C 157.335938 277.710938 157.585938 277.867188 157.820312 277.886719 C 158.007812 278.101562 158.195312 278.3125 158.378906 278.527344 C 158.371094 278.523438 158.363281 278.519531 158.355469 278.515625 C 157.980469 278.363281 157.601562 278.210938 157.226562 278.058594 C 156.480469 277.753906 155.707031 277.519531 154.945312 277.242188 C 154.75 277.171875 154.617188 277.488281 154.804688 277.582031 C 155.523438 277.949219 156.226562 278.351562 156.960938 278.691406 C 157.332031 278.859375 157.699219 279.027344 158.066406 279.199219 C 158.433594 279.367188 158.8125 279.527344 159.214844 279.5625 C 159.234375 279.566406 159.25 279.550781 159.265625 279.550781 C 159.4375 279.753906 159.601562 279.964844 159.773438 280.171875 C 159.398438 280.027344 159.011719 279.902344 158.625 279.785156 C 157.792969 279.527344 156.945312 279.34375 156.085938 279.195312 C 155.851562 279.152344 155.75 279.484375 155.988281 279.558594 C 156.804688 279.8125 157.609375 280.097656 158.414062 280.390625 C 158.800781 280.53125 159.183594 280.691406 159.570312 280.835938 C 159.863281 280.949219 160.203125 281.125 160.53125 281.121094 C 160.792969 281.445312 161.054688 281.773438 161.3125 282.101562 C 161.199219 282.066406 161.082031 282.039062 160.984375 282.011719 C 160.550781 281.898438 160.117188 281.789062 159.679688 281.675781 C 158.828125 281.453125 157.972656 281.246094 157.113281 281.046875 C 156.921875 281.003906 156.855469 281.269531 157.03125 281.335938 C 157.847656 281.640625 158.660156 281.9375 159.480469 282.222656 C 159.890625 282.363281 160.300781 282.507812 160.710938 282.648438 C 161.023438 282.757812 161.574219 283.019531 161.886719 282.8125 C 162.066406 283.046875 162.253906 283.277344 162.433594 283.515625 C 161.980469 283.417969 161.53125 283.324219 161.078125 283.246094 C 160.128906 283.082031 159.179688 282.957031 158.230469 282.792969 C 158.003906 282.753906 157.90625 283.074219 158.136719 283.144531 C 159.046875 283.425781 159.949219 283.746094 160.859375 284.027344 C 161.308594 284.164062 161.761719 284.285156 162.214844 284.40625 C 162.503906 284.484375 162.894531 284.625 163.234375 284.601562 C 168.5 291.652344 173.027344 299.273438 176.867188 307.160156 C 182.777344 319.296875 186.425781 332.328125 189.859375 345.332031 C 190.808594 348.941406 191.753906 352.546875 192.699219 356.152344 C 193 357.300781 193.289062 358.460938 193.585938 359.621094 C 193.570312 360.339844 193.5625 361.054688 193.570312 361.769531 C 184.839844 335.273438 162.730469 313.8125 139.796875 299.074219 C 135.507812 296.316406 131.109375 293.753906 126.648438 291.300781 C 126.640625 291.269531 126.621094 291.25 126.601562 291.222656 C 126.582031 290.882812 126.394531 290.535156 126.265625 290.230469 C 126.089844 289.8125 125.910156 289.398438 125.734375 288.984375 C 125.363281 288.113281 125.019531 287.238281 124.671875 286.359375 C 124.601562 286.175781 124.3125 286.246094 124.371094 286.441406 C 124.644531 287.347656 124.921875 288.25 125.171875 289.164062 C 125.296875 289.621094 125.417969 290.078125 125.546875 290.53125 C 125.566406 290.605469 125.59375 290.675781 125.613281 290.746094 C 125.535156 290.699219 125.453125 290.660156 125.371094 290.613281 C 125.304688 290.296875 125.136719 289.972656 125.023438 289.707031 C 124.839844 289.273438 124.65625 288.835938 124.464844 288.40625 C 124.070312 287.511719 123.671875 286.617188 123.28125 285.71875 C 123.199219 285.53125 122.886719 285.664062 122.949219 285.859375 C 123.242188 286.78125 123.53125 287.699219 123.820312 288.621094 C 123.960938 289.074219 124.113281 289.523438 124.261719 289.972656 C 124.265625 289.992188 124.273438 290.007812 124.28125 290.027344 C 124.078125 289.917969 123.878906 289.808594 123.679688 289.703125 C 123.613281 289.410156 123.46875 289.109375 123.363281 288.867188 C 123.1875 288.46875 123.003906 288.078125 122.804688 287.695312 C 122.402344 286.914062 121.910156 286.171875 121.394531 285.457031 C 121.28125 285.304688 121.039062 285.4375 121.132812 285.609375 C 121.546875 286.367188 121.894531 287.144531 122.222656 287.941406 C 122.382812 288.328125 122.53125 288.71875 122.667969 289.113281 C 122.671875 289.132812 122.679688 289.148438 122.683594 289.167969 C 122.320312 288.972656 121.960938 288.773438 121.597656 288.582031 C 121.546875 288.339844 121.457031 288.09375 121.371094 287.878906 C 121.246094 287.550781 121.113281 287.222656 120.960938 286.902344 C 120.664062 286.273438 120.320312 285.691406 119.917969 285.125 C 119.828125 284.996094 119.644531 285.105469 119.707031 285.246094 C 119.988281 285.855469 120.242188 286.480469 120.472656 287.109375 C 120.585938 287.417969 120.695312 287.726562 120.796875 288.035156 C 120.808594 288.078125 120.820312 288.128906 120.832031 288.171875 C 120.628906 288.066406 120.421875 287.960938 120.21875 287.855469 C 120.183594 287.648438 120.058594 287.421875 119.992188 287.296875 C 119.835938 287 119.667969 286.703125 119.503906 286.40625 C 119.15625 285.773438 118.742188 285.183594 118.359375 284.570312 C 118.25 284.394531 118.003906 284.546875 118.085938 284.730469 C 118.371094 285.398438 118.625 286.078125 118.949219 286.730469 C 119.054688 286.941406 119.15625 287.152344 119.261719 287.363281 C 118.992188 287.222656 118.722656 287.085938 118.453125 286.945312 C 118.476562 286.914062 118.519531 286.898438 118.515625 286.847656 C 118.503906 286.605469 118.390625 286.394531 118.292969 286.175781 C 118.195312 285.957031 118.085938 285.742188 117.976562 285.527344 C 117.765625 285.101562 117.539062 284.691406 117.300781 284.28125 C 117.214844 284.132812 116.953125 284.230469 117.015625 284.398438 C 117.175781 284.847656 117.347656 285.289062 117.535156 285.726562 C 117.628906 285.941406 117.71875 286.15625 117.820312 286.367188 C 117.875 286.480469 117.925781 286.59375 117.988281 286.707031 C 117.753906 286.585938 117.523438 286.464844 117.292969 286.347656 C 117.277344 286.164062 117.222656 285.992188 117.148438 285.816406 C 117.070312 285.617188 116.988281 285.421875 116.90625 285.226562 C 116.742188 284.824219 116.550781 284.433594 116.363281 284.039062 C 116.28125 283.867188 115.996094 283.988281 116.054688 284.167969 C 116.179688 284.582031 116.304688 284.992188 116.457031 285.398438 C 116.53125 285.597656 116.605469 285.796875 116.679688 285.996094 C 116.683594 286.011719 116.691406 286.023438 116.699219 286.042969 C 116.507812 285.941406 116.3125 285.84375 116.121094 285.742188 C 116.101562 285.59375 116.054688 285.449219 116 285.300781 C 115.929688 285.128906 115.863281 284.957031 115.796875 284.785156 C 115.660156 284.433594 115.476562 284.09375 115.3125 283.753906 C 115.242188 283.605469 115.023438 283.714844 115.058594 283.863281 C 115.140625 284.226562 115.210938 284.601562 115.324219 284.957031 C 115.359375 285.066406 115.394531 285.175781 115.429688 285.28125 C 115.398438 285.269531 115.371094 285.257812 115.339844 285.25 C 115.335938 285.242188 115.335938 285.230469 115.332031 285.222656 C 115.300781 285.140625 115.253906 285.066406 115.210938 284.992188 C 115.121094 284.84375 115.027344 284.707031 114.929688 284.566406 C 114.832031 284.421875 114.734375 284.28125 114.621094 284.152344 C 114.515625 284.027344 114.417969 283.894531 114.316406 283.761719 C 114.199219 283.609375 113.960938 283.738281 114.054688 283.917969 C 114.128906 284.0625 114.207031 284.210938 114.273438 284.359375 C 114.3125 284.449219 114.363281 284.53125 114.410156 284.617188 C 114.402344 284.617188 114.398438 284.613281 114.390625 284.609375 C 114.226562 284.554688 114.0625 284.492188 113.894531 284.449219 C 113.722656 284.402344 113.550781 284.367188 113.382812 284.324219 C 113.160156 284.273438 113.015625 284.582031 113.222656 284.699219 C 113.375 284.785156 113.523438 284.875 113.675781 284.957031 C 113.828125 285.042969 113.992188 285.109375 114.152344 285.179688 C 114.160156 285.183594 114.167969 285.1875 114.175781 285.1875 C 113.71875 285.191406 113.265625 285.210938 112.8125 285.222656 C 112.597656 285.226562 112.601562 285.542969 112.8125 285.554688 C 113.277344 285.578125 113.742188 285.613281 114.210938 285.625 C 114.4375 285.632812 114.664062 285.640625 114.894531 285.644531 C 114.9375 285.648438 114.992188 285.640625 115.039062 285.640625 C 115.246094 285.75 115.453125 285.867188 115.660156 285.980469 C 115.449219 285.972656 115.238281 285.964844 115.027344 285.960938 C 114.234375 285.945312 113.445312 285.9375 112.65625 285.941406 C 112.441406 285.941406 112.453125 286.242188 112.65625 286.265625 C 113.445312 286.355469 114.234375 286.4375 115.027344 286.511719 C 115.414062 286.550781 115.800781 286.589844 116.191406 286.613281 C 116.371094 286.621094 116.617188 286.652344 116.835938 286.621094 C 117.0625 286.75 117.292969 286.875 117.523438 287 C 117.25 286.992188 116.976562 286.988281 116.707031 286.980469 C 115.921875 286.964844 115.144531 286.972656 114.363281 286.984375 C 114.167969 286.988281 114.175781 287.265625 114.363281 287.285156 C 115.128906 287.367188 115.894531 287.445312 116.664062 287.5 C 117.039062 287.523438 117.414062 287.558594 117.789062 287.574219 C 117.992188 287.585938 118.261719 287.582031 118.507812 287.542969 C 118.816406 287.710938 119.121094 287.875 119.425781 288.042969 C 119.066406 288.015625 118.703125 287.988281 118.34375 287.980469 C 117.453125 287.960938 116.585938 288.027344 115.710938 288.167969 C 115.527344 288.199219 115.570312 288.5 115.753906 288.492188 C 116.613281 288.46875 117.484375 288.480469 118.34375 288.546875 C 118.761719 288.578125 119.179688 288.625 119.59375 288.6875 C 119.921875 288.734375 120.28125 288.796875 120.609375 288.714844 C 120.792969 288.820312 120.972656 288.925781 121.15625 289.027344 C 120.808594 289.039062 120.457031 289.050781 120.109375 289.0625 C 119.164062 289.105469 118.214844 289.109375 117.28125 289.265625 C 117.039062 289.308594 117.132812 289.632812 117.332031 289.65625 C 118.203125 289.761719 119.082031 289.730469 119.957031 289.730469 C 120.394531 289.726562 120.832031 289.726562 121.273438 289.71875 C 121.574219 289.714844 121.914062 289.707031 122.226562 289.640625 C 122.507812 289.800781 122.785156 289.960938 123.066406 290.121094 C 123.074219 290.132812 123.082031 290.144531 123.089844 290.152344 C 122.574219 290.246094 122.0625 290.359375 121.546875 290.4375 C 120.761719 290.554688 119.980469 290.703125 119.195312 290.847656 C 119.082031 290.867188 119.109375 291.054688 119.222656 291.050781 C 120.019531 291.003906 120.816406 290.964844 121.609375 290.894531 C 122.402344 290.828125 123.214844 290.867188 124 290.734375 C 124.027344 290.726562 124.035156 290.703125 124.0625 290.691406 C 124.277344 290.816406 124.496094 290.9375 124.714844 291.0625 C 124.765625 291.132812 124.8125 291.207031 124.902344 291.246094 C 124.949219 291.269531 125.003906 291.265625 125.0625 291.265625 C 125.097656 291.289062 125.136719 291.3125 125.175781 291.335938 C 124.84375 291.414062 124.507812 291.492188 124.171875 291.5625 C 123.347656 291.734375 122.535156 291.925781 121.714844 292.121094 C 121.542969 292.164062 121.621094 292.410156 121.789062 292.386719 C 122.625 292.261719 123.457031 292.132812 124.289062 291.984375 C 124.6875 291.914062 125.085938 291.847656 125.488281 291.789062 C 125.605469 291.769531 125.722656 291.753906 125.839844 291.734375 C 149.992188 305.992188 172.765625 324.125 186.128906 349.046875 C 189.699219 355.703125 192.503906 362.847656 194.59375 370.125 C 194.566406 370.367188 194.53125 370.613281 194.507812 370.855469 C 194.476562 371.160156 194.6875 371.300781 194.921875 371.304688 C 195.132812 372.070312 195.34375 372.832031 195.539062 373.597656 C 195.691406 374.191406 196.539062 373.929688 196.441406 373.347656 C 196.269531 372.304688 196.070312 371.269531 195.851562 370.242188 C 196.882812 367.832031 197.496094 365.242188 198.332031 362.765625 C 199.265625 359.988281 200.292969 357.246094 201.417969 354.542969 C 203.808594 348.800781 206.628906 343.234375 209.824219 337.898438 C 216.019531 327.546875 223.597656 317.9375 232.257812 309.53125 C 234.910156 306.953125 237.6875 304.515625 240.5625 302.199219 C 240.714844 302.179688 240.867188 302.167969 241.015625 302.152344 C 241.355469 302.117188 241.695312 302.078125 242.035156 302.054688 C 242.703125 302.007812 243.363281 302.023438 244.03125 302.074219 C 244.234375 302.089844 244.285156 301.746094 244.082031 301.71875 C 243.414062 301.625 242.742188 301.5625 242.074219 301.5 C 241.886719 301.480469 241.695312 301.472656 241.507812 301.460938 C 241.554688 301.425781 241.597656 301.390625 241.640625 301.355469 C 241.851562 301.371094 242.082031 301.335938 242.273438 301.320312 C 242.550781 301.292969 242.824219 301.269531 243.097656 301.226562 C 243.648438 301.144531 244.195312 301.0625 244.746094 300.996094 C 244.980469 300.964844 244.996094 300.609375 244.746094 300.617188 C 244.183594 300.640625 243.617188 300.652344 243.054688 300.65625 C 242.871094 300.660156 242.691406 300.675781 242.507812 300.6875 C 242.507812 300.683594 242.511719 300.679688 242.511719 300.679688 C 242.574219 300.628906 242.636719 300.582031 242.699219 300.535156 C 242.71875 300.546875 242.734375 300.566406 242.757812 300.574219 C 243.058594 300.652344 243.417969 300.554688 243.722656 300.523438 C 244.046875 300.488281 244.367188 300.457031 244.691406 300.421875 C 245.332031 300.359375 245.964844 300.265625 246.601562 300.167969 C 246.8125 300.132812 246.757812 299.792969 246.550781 299.796875 C 245.902344 299.808594 245.261719 299.828125 244.617188 299.875 C 244.292969 299.898438 243.972656 299.921875 243.648438 299.941406 C 243.585938 299.945312 243.515625 299.949219 243.445312 299.949219 C 243.671875 299.78125 243.886719 299.601562 244.113281 299.429688 C 244.347656 299.5625 244.671875 299.539062 244.925781 299.527344 C 245.253906 299.507812 245.578125 299.488281 245.90625 299.464844 C 246.546875 299.425781 247.183594 299.339844 247.828125 299.296875 C 248.058594 299.28125 248.0625 298.945312 247.828125 298.929688 C 247.183594 298.886719 246.546875 298.800781 245.90625 298.761719 C 245.636719 298.746094 245.367188 298.730469 245.097656 298.714844 C 245.445312 298.460938 245.800781 298.214844 246.148438 297.964844 C 246.148438 298.0625 246.203125 298.15625 246.304688 298.183594 C 246.542969 298.242188 246.789062 298.25 247.035156 298.261719 C 247.265625 298.269531 247.496094 298.28125 247.730469 298.292969 C 248.203125 298.3125 248.679688 298.304688 249.152344 298.308594 C 249.367188 298.3125 249.355469 298.007812 249.152344 297.984375 C 248.6875 297.929688 248.222656 297.863281 247.757812 297.816406 C 247.535156 297.796875 247.3125 297.777344 247.089844 297.761719 C 246.878906 297.742188 246.667969 297.730469 246.460938 297.742188 C 246.746094 297.535156 247.03125 297.328125 247.320312 297.125 C 247.367188 297.132812 247.417969 297.140625 247.464844 297.148438 C 247.617188 297.160156 247.769531 297.171875 247.921875 297.1875 C 248.203125 297.210938 248.484375 297.234375 248.769531 297.25 C 249.355469 297.285156 249.941406 297.289062 250.527344 297.296875 C 250.699219 297.300781 250.746094 297.023438 250.570312 296.992188 C 249.984375 296.882812 249.402344 296.769531 248.8125 296.6875 C 248.5625 296.648438 248.316406 296.621094 248.066406 296.589844 C 248.160156 296.527344 248.25 296.457031 248.339844 296.394531 C 248.4375 296.390625 248.542969 296.367188 248.628906 296.355469 C 248.804688 296.335938 248.980469 296.316406 249.152344 296.300781 C 249.515625 296.265625 249.878906 296.246094 250.246094 296.214844 C 250.460938 296.195312 250.464844 295.890625 250.246094 295.878906 C 249.871094 295.855469 249.503906 295.871094 249.132812 295.90625 C 248.957031 295.921875 248.785156 295.941406 248.609375 295.960938 C 248.644531 295.921875 248.675781 295.886719 248.710938 295.847656 C 249.015625 295.484375 249.292969 295.097656 249.585938 294.726562 C 249.640625 294.65625 249.652344 294.566406 249.585938 294.496094 C 249.523438 294.433594 249.417969 294.433594 249.355469 294.496094 C 249.019531 294.835938 248.667969 295.164062 248.351562 295.515625 C 248.191406 295.691406 248.035156 295.867188 247.878906 296.042969 C 247.75 296.183594 247.625 296.34375 247.527344 296.511719 C 247.523438 296.511719 247.519531 296.515625 247.515625 296.519531 C 247.398438 296.507812 247.285156 296.515625 247.179688 296.554688 C 247.25 296.4375 247.320312 296.320312 247.390625 296.203125 C 247.683594 295.699219 247.9375 295.171875 248.226562 294.660156 C 248.367188 294.40625 248.007812 294.210938 247.84375 294.4375 C 247.5 294.914062 247.125 295.371094 246.785156 295.851562 C 246.460938 296.3125 246.007812 296.828125 245.949219 297.410156 C 245.945312 297.464844 245.960938 297.507812 245.988281 297.546875 C 245.402344 297.945312 244.8125 298.335938 244.234375 298.742188 C 244.191406 298.757812 244.152344 298.78125 244.109375 298.804688 C 244.207031 298.632812 244.292969 298.457031 244.378906 298.285156 C 244.527344 297.976562 244.6875 297.667969 244.851562 297.363281 C 245.171875 296.753906 245.527344 296.15625 245.921875 295.59375 C 246.050781 295.40625 245.765625 295.191406 245.609375 295.351562 C 245.113281 295.871094 244.667969 296.421875 244.292969 297.035156 C 244.109375 297.332031 243.953125 297.640625 243.8125 297.957031 C 243.664062 298.285156 243.515625 298.65625 243.511719 299.023438 C 243.511719 299.09375 243.558594 299.152344 243.617188 299.191406 C 243.339844 299.390625 243.0625 299.59375 242.785156 299.792969 C 242.855469 299.566406 242.925781 299.34375 242.992188 299.113281 C 243.191406 298.441406 243.347656 297.753906 243.519531 297.070312 C 243.578125 296.855469 243.277344 296.785156 243.195312 296.980469 C 242.925781 297.621094 242.640625 298.261719 242.394531 298.910156 C 242.273438 299.226562 242.160156 299.546875 242.042969 299.867188 C 241.984375 300.027344 241.929688 300.1875 241.875 300.347656 C 241.859375 300.394531 241.84375 300.445312 241.824219 300.492188 C 241.402344 300.804688 240.972656 301.113281 240.554688 301.429688 C 240.503906 301.429688 240.457031 301.4375 240.40625 301.441406 C 240.421875 301.40625 240.441406 301.371094 240.457031 301.335938 C 240.605469 300.949219 240.75 300.558594 240.882812 300.164062 C 241.152344 299.34375 241.421875 298.527344 241.691406 297.707031 C 241.75 297.523438 241.453125 297.390625 241.367188 297.574219 C 241.007812 298.367188 240.648438 299.164062 240.292969 299.960938 C 240.117188 300.351562 239.949219 300.753906 239.796875 301.15625 C 239.699219 301.425781 239.511719 301.859375 239.628906 302.15625 C 223.746094 314.425781 210.9375 330.246094 202.347656 348.460938 C 202.484375 348.0625 202.609375 347.664062 202.75 347.269531 C 205.550781 339.316406 208.792969 331.523438 212.449219 323.925781 C 219.621094 309.023438 228.351562 294.851562 238.410156 281.722656 C 241.476562 277.722656 244.65625 273.78125 247.949219 269.941406 C 248.105469 269.886719 248.257812 269.824219 248.402344 269.777344 C 248.839844 269.621094 249.28125 269.46875 249.722656 269.320312 C 250.605469 269.015625 251.488281 268.722656 252.375 268.433594 C 252.574219 268.371094 252.492188 268.066406 252.289062 268.121094 C 251.394531 268.371094 250.496094 268.617188 249.59375 268.851562 C 249.296875 268.929688 249 269.003906 248.703125 269.082031 C 248.910156 268.84375 249.117188 268.613281 249.324219 268.375 C 250.460938 267.984375 251.597656 267.582031 252.726562 267.164062 C 252.933594 267.089844 252.855469 266.773438 252.632812 266.828125 C 251.796875 267.027344 250.964844 267.246094 250.132812 267.460938 C 250.1875 267.394531 250.242188 267.332031 250.296875 267.269531 C 250.621094 267.292969 250.953125 267.113281 251.246094 266.996094 C 251.582031 266.867188 251.917969 266.738281 252.253906 266.609375 C 252.917969 266.355469 253.578125 266.101562 254.234375 265.820312 C 254.410156 265.742188 254.28125 265.472656 254.105469 265.515625 C 253.417969 265.683594 252.746094 265.878906 252.066406 266.070312 C 251.75 266.164062 251.433594 266.253906 251.113281 266.34375 C 251.230469 266.210938 251.34375 266.078125 251.460938 265.949219 C 251.507812 265.9375 251.550781 265.929688 251.601562 265.917969 C 251.796875 265.867188 251.988281 265.808594 252.183594 265.753906 C 252.558594 265.648438 252.933594 265.546875 253.308594 265.441406 C 254.074219 265.226562 254.835938 265.011719 255.59375 264.777344 C 255.8125 264.710938 255.722656 264.394531 255.5 264.4375 C 254.722656 264.597656 253.949219 264.78125 253.175781 264.964844 C 252.820312 265.046875 252.460938 265.132812 252.105469 265.214844 C 252.265625 265.039062 252.429688 264.867188 252.589844 264.691406 C 252.933594 264.695312 253.28125 264.574219 253.605469 264.488281 C 253.984375 264.390625 254.359375 264.285156 254.730469 264.175781 C 255.457031 263.96875 256.167969 263.757812 256.863281 263.464844 C 257.023438 263.398438 256.945312 263.117188 256.777344 263.136719 C 256.023438 263.222656 255.296875 263.394531 254.5625 263.566406 C 254.199219 263.65625 253.835938 263.742188 253.472656 263.839844 C 253.441406 263.847656 253.40625 263.855469 253.371094 263.867188 C 253.617188 263.597656 253.867188 263.339844 254.117188 263.074219 C 254.179688 263.0625 254.234375 263.042969 254.273438 263.03125 C 254.921875 262.785156 255.578125 262.554688 256.234375 262.324219 C 256.964844 262.066406 257.691406 261.792969 258.414062 261.496094 C 258.578125 261.429688 258.515625 261.164062 258.335938 261.222656 C 257.160156 261.613281 255.972656 261.972656 254.792969 262.359375 C 254.867188 262.28125 254.9375 262.203125 255.011719 262.128906 C 255.289062 262.085938 255.5625 262.019531 255.835938 261.9375 C 256.222656 261.820312 256.609375 261.707031 256.996094 261.59375 C 257.722656 261.378906 258.441406 261.164062 259.15625 260.910156 C 259.351562 260.84375 259.273438 260.554688 259.070312 260.597656 Z M 259.070312 260.597656 " fill-opacity="1" fill-rule="nonzero"/></g><g clip-path="url(#1092acb6fb)"><path fill="#4e7f1c" d="M 262.5 329.15625 C 237.726562 336.007812 215.832031 352.675781 202.613281 374.714844 L 189.675781 374.714844 C 188.226562 373.964844 186.894531 372.933594 185.597656 371.953125 C 177.605469 365.914062 168.796875 360.890625 159.292969 357.78125 C 149.769531 354.671875 139.546875 353.523438 129.671875 355.152344 C 141.558594 351.3125 154.53125 350.878906 166.648438 353.9375 C 172.808594 355.484375 178.722656 357.964844 184.199219 361.175781 C 177.738281 352.824219 170.3125 345.222656 161.820312 338.96875 C 151.050781 331.035156 138.53125 325.296875 125.308594 323.183594 C 140.808594 323.964844 156.210938 328.640625 169.03125 337.390625 C 176.171875 342.261719 182.46875 348.433594 187.429688 355.519531 C 187.078125 353.738281 186.710938 351.960938 186.28125 350.195312 C 186.144531 349.648438 185.996094 349.097656 185.863281 348.566406 C 185.113281 345.839844 184.25 343.144531 183.214844 340.515625 C 177.222656 325.011719 166.449219 311.355469 152.632812 302.09375 C 163.769531 306.535156 173.625 314.085938 180.785156 323.683594 C 182.867188 326.460938 184.714844 329.421875 186.3125 332.5 C 190.242188 340.015625 192.707031 348.316406 193.488281 356.765625 L 194.355469 359.761719 C 194.105469 355.652344 194.089844 351.511719 194.371094 347.386719 C 194.6875 342.726562 195.085938 338.019531 195.738281 333.363281 C 196.851562 325.511719 198.699219 317.8125 202.078125 310.675781 C 205.011719 304.472656 213.117188 296.019531 214.601562 293.476562 C 210.902344 301.09375 202.644531 316.3125 200.679688 328.921875 C 199.53125 336.273438 199.265625 343.726562 199.683594 351.160156 C 199.730469 352.507812 199.832031 353.855469 199.949219 355.203125 C 201.53125 351.859375 203.429688 348.648438 205.558594 345.605469 C 209.820312 339.5 215.050781 334.027344 220.808594 329.339844 C 232.429688 319.855469 246.132812 313.238281 260.050781 307.597656 C 236.695312 317.644531 217.378906 336.558594 206.457031 359.476562 C 219.726562 342.097656 240.65625 330.683594 262.5 329.15625 Z M 262.5 329.15625 " fill-opacity="1" fill-rule="nonzero"/></g></svg>